<mxfile host="65bd71144e">
    <diagram name="Page-1" id="VCEPgOhNraVawhyDC7fd">
        <mxGraphModel dx="1006" dy="1802" grid="1" gridSize="10" guides="1" tooltips="1" connect="1" arrows="1" fold="1" page="1" pageScale="1" pageWidth="850" pageHeight="1100" math="0" shadow="0">
            <root>
                <mxCell id="0"/>
                <mxCell id="1" parent="0"/>
                <mxCell id="Sclc0kjUKKFrEiLYMH_a-2" value="" style="shape=table;startSize=0;container=1;collapsible=0;childLayout=tableLayout;" parent="1" vertex="1">
                    <mxGeometry x="60" y="40" width="730" height="40" as="geometry"/>
                </mxCell>
                <mxCell id="Sclc0kjUKKFrEiLYMH_a-3" value="" style="shape=tableRow;horizontal=0;startSize=0;swimlaneHead=0;swimlaneBody=0;strokeColor=inherit;top=0;left=0;bottom=0;right=0;collapsible=0;dropTarget=0;fillColor=none;points=[[0,0.5],[1,0.5]];portConstraint=eastwest;" parent="Sclc0kjUKKFrEiLYMH_a-2" vertex="1">
                    <mxGeometry width="730" height="40" as="geometry"/>
                </mxCell>
                <mxCell id="Sclc0kjUKKFrEiLYMH_a-4" value="&lt;u&gt;Id_no&lt;/u&gt;" style="shape=partialRectangle;html=1;whiteSpace=wrap;connectable=0;strokeColor=inherit;overflow=hidden;fillColor=none;top=0;left=0;bottom=0;right=0;pointerEvents=1;" parent="Sclc0kjUKKFrEiLYMH_a-3" vertex="1">
                    <mxGeometry width="92" height="40" as="geometry">
                        <mxRectangle width="92" height="40" as="alternateBounds"/>
                    </mxGeometry>
                </mxCell>
                <mxCell id="Sclc0kjUKKFrEiLYMH_a-5" value="Artist_Name" style="shape=partialRectangle;html=1;whiteSpace=wrap;connectable=0;strokeColor=inherit;overflow=hidden;fillColor=none;top=0;left=0;bottom=0;right=0;pointerEvents=1;" parent="Sclc0kjUKKFrEiLYMH_a-3" vertex="1">
                    <mxGeometry x="92" width="91" height="40" as="geometry">
                        <mxRectangle width="91" height="40" as="alternateBounds"/>
                    </mxGeometry>
                </mxCell>
                <mxCell id="Sclc0kjUKKFrEiLYMH_a-6" value="Epoch" style="shape=partialRectangle;html=1;whiteSpace=wrap;connectable=0;strokeColor=inherit;overflow=hidden;fillColor=none;top=0;left=0;bottom=0;right=0;pointerEvents=1;" parent="Sclc0kjUKKFrEiLYMH_a-3" vertex="1">
                    <mxGeometry x="183" width="90" height="40" as="geometry">
                        <mxRectangle width="90" height="40" as="alternateBounds"/>
                    </mxGeometry>
                </mxCell>
                <mxCell id="Sclc0kjUKKFrEiLYMH_a-7" value="Country" style="shape=partialRectangle;html=1;whiteSpace=wrap;connectable=0;strokeColor=inherit;overflow=hidden;fillColor=none;top=0;left=0;bottom=0;right=0;pointerEvents=1;" parent="Sclc0kjUKKFrEiLYMH_a-3" vertex="1">
                    <mxGeometry x="273" width="92" height="40" as="geometry">
                        <mxRectangle width="92" height="40" as="alternateBounds"/>
                    </mxGeometry>
                </mxCell>
                <mxCell id="Sclc0kjUKKFrEiLYMH_a-8" value="Title" style="shape=partialRectangle;html=1;whiteSpace=wrap;connectable=0;strokeColor=inherit;overflow=hidden;fillColor=none;top=0;left=0;bottom=0;right=0;pointerEvents=1;" parent="Sclc0kjUKKFrEiLYMH_a-3" vertex="1">
                    <mxGeometry x="365" width="92" height="40" as="geometry">
                        <mxRectangle width="92" height="40" as="alternateBounds"/>
                    </mxGeometry>
                </mxCell>
                <mxCell id="Sclc0kjUKKFrEiLYMH_a-9" value="Year_created" style="shape=partialRectangle;html=1;whiteSpace=wrap;connectable=0;strokeColor=inherit;overflow=hidden;fillColor=none;top=0;left=0;bottom=0;right=0;pointerEvents=1;" parent="Sclc0kjUKKFrEiLYMH_a-3" vertex="1">
                    <mxGeometry x="457" width="91" height="40" as="geometry">
                        <mxRectangle width="91" height="40" as="alternateBounds"/>
                    </mxGeometry>
                </mxCell>
                <mxCell id="Sclc0kjUKKFrEiLYMH_a-10" value="Descriptionn" style="shape=partialRectangle;html=1;whiteSpace=wrap;connectable=0;strokeColor=inherit;overflow=hidden;fillColor=none;top=0;left=0;bottom=0;right=0;pointerEvents=1;" parent="Sclc0kjUKKFrEiLYMH_a-3" vertex="1">
                    <mxGeometry x="548" width="90" height="40" as="geometry">
                        <mxRectangle width="90" height="40" as="alternateBounds"/>
                    </mxGeometry>
                </mxCell>
                <mxCell id="Sclc0kjUKKFrEiLYMH_a-11" value="Exhibition_Name" style="shape=partialRectangle;html=1;whiteSpace=wrap;connectable=0;strokeColor=inherit;overflow=hidden;fillColor=none;top=0;left=0;bottom=0;right=0;pointerEvents=1;" parent="Sclc0kjUKKFrEiLYMH_a-3" vertex="1">
                    <mxGeometry x="638" width="92" height="40" as="geometry">
                        <mxRectangle width="92" height="40" as="alternateBounds"/>
                    </mxGeometry>
                </mxCell>
                <mxCell id="Sclc0kjUKKFrEiLYMH_a-14" value="ART_OBJECTS" style="text;html=1;align=center;verticalAlign=middle;resizable=0;points=[];autosize=1;strokeColor=none;fillColor=none;" parent="1" vertex="1">
                    <mxGeometry x="50" y="10" width="110" height="30" as="geometry"/>
                </mxCell>
                <mxCell id="Sclc0kjUKKFrEiLYMH_a-15" value="" style="shape=table;startSize=0;container=1;collapsible=0;childLayout=tableLayout;" parent="1" vertex="1">
                    <mxGeometry x="60" y="170" width="310" height="40" as="geometry"/>
                </mxCell>
                <mxCell id="Sclc0kjUKKFrEiLYMH_a-16" value="" style="shape=tableRow;horizontal=0;startSize=0;swimlaneHead=0;swimlaneBody=0;strokeColor=inherit;top=0;left=0;bottom=0;right=0;collapsible=0;dropTarget=0;fillColor=none;points=[[0,0.5],[1,0.5]];portConstraint=eastwest;" parent="Sclc0kjUKKFrEiLYMH_a-15" vertex="1">
                    <mxGeometry width="310" height="40" as="geometry"/>
                </mxCell>
                <mxCell id="Sclc0kjUKKFrEiLYMH_a-17" value="&lt;u&gt;ID_no&lt;/u&gt;" style="shape=partialRectangle;html=1;whiteSpace=wrap;connectable=0;strokeColor=inherit;overflow=hidden;fillColor=none;top=0;left=0;bottom=0;right=0;pointerEvents=1;" parent="Sclc0kjUKKFrEiLYMH_a-16" vertex="1">
                    <mxGeometry width="78" height="40" as="geometry">
                        <mxRectangle width="78" height="40" as="alternateBounds"/>
                    </mxGeometry>
                </mxCell>
                <mxCell id="Sclc0kjUKKFrEiLYMH_a-18" value="Paint_type" style="shape=partialRectangle;html=1;whiteSpace=wrap;connectable=0;strokeColor=inherit;overflow=hidden;fillColor=none;top=0;left=0;bottom=0;right=0;pointerEvents=1;" parent="Sclc0kjUKKFrEiLYMH_a-16" vertex="1">
                    <mxGeometry x="78" width="77" height="40" as="geometry">
                        <mxRectangle width="77" height="40" as="alternateBounds"/>
                    </mxGeometry>
                </mxCell>
                <mxCell id="Sclc0kjUKKFrEiLYMH_a-19" value="Style" style="shape=partialRectangle;html=1;whiteSpace=wrap;connectable=0;strokeColor=inherit;overflow=hidden;fillColor=none;top=0;left=0;bottom=0;right=0;pointerEvents=1;" parent="Sclc0kjUKKFrEiLYMH_a-16" vertex="1">
                    <mxGeometry x="155" width="78" height="40" as="geometry">
                        <mxRectangle width="78" height="40" as="alternateBounds"/>
                    </mxGeometry>
                </mxCell>
                <mxCell id="Sclc0kjUKKFrEiLYMH_a-20" value="Drawn_on" style="shape=partialRectangle;html=1;whiteSpace=wrap;connectable=0;strokeColor=inherit;overflow=hidden;fillColor=none;top=0;left=0;bottom=0;right=0;pointerEvents=1;" parent="Sclc0kjUKKFrEiLYMH_a-16" vertex="1">
                    <mxGeometry x="233" width="77" height="40" as="geometry">
                        <mxRectangle width="77" height="40" as="alternateBounds"/>
                    </mxGeometry>
                </mxCell>
                <mxCell id="Sclc0kjUKKFrEiLYMH_a-21" value="PAINTING" style="text;html=1;align=center;verticalAlign=middle;resizable=0;points=[];autosize=1;strokeColor=none;fillColor=none;" parent="1" vertex="1">
                    <mxGeometry x="50" y="140" width="80" height="30" as="geometry"/>
                </mxCell>
                <mxCell id="Sclc0kjUKKFrEiLYMH_a-23" value="" style="shape=table;startSize=0;container=1;collapsible=0;childLayout=tableLayout;" parent="1" vertex="1">
                    <mxGeometry x="450" y="170" width="387" height="40" as="geometry"/>
                </mxCell>
                <mxCell id="Sclc0kjUKKFrEiLYMH_a-24" value="" style="shape=tableRow;horizontal=0;startSize=0;swimlaneHead=0;swimlaneBody=0;strokeColor=inherit;top=0;left=0;bottom=0;right=0;collapsible=0;dropTarget=0;fillColor=none;points=[[0,0.5],[1,0.5]];portConstraint=eastwest;" parent="Sclc0kjUKKFrEiLYMH_a-23" vertex="1">
                    <mxGeometry width="387" height="40" as="geometry"/>
                </mxCell>
                <mxCell id="Sclc0kjUKKFrEiLYMH_a-25" value="&lt;u&gt;ID_no&lt;/u&gt;" style="shape=partialRectangle;html=1;whiteSpace=wrap;connectable=0;strokeColor=inherit;overflow=hidden;fillColor=none;top=0;left=0;bottom=0;right=0;pointerEvents=1;" parent="Sclc0kjUKKFrEiLYMH_a-24" vertex="1">
                    <mxGeometry width="78" height="40" as="geometry">
                        <mxRectangle width="78" height="40" as="alternateBounds"/>
                    </mxGeometry>
                </mxCell>
                <mxCell id="Sclc0kjUKKFrEiLYMH_a-26" value="Height" style="shape=partialRectangle;html=1;whiteSpace=wrap;connectable=0;strokeColor=inherit;overflow=hidden;fillColor=none;top=0;left=0;bottom=0;right=0;pointerEvents=1;" parent="Sclc0kjUKKFrEiLYMH_a-24" vertex="1">
                    <mxGeometry x="78" width="77" height="40" as="geometry">
                        <mxRectangle width="77" height="40" as="alternateBounds"/>
                    </mxGeometry>
                </mxCell>
                <mxCell id="Sclc0kjUKKFrEiLYMH_a-27" value="Weight" style="shape=partialRectangle;html=1;whiteSpace=wrap;connectable=0;strokeColor=inherit;overflow=hidden;fillColor=none;top=0;left=0;bottom=0;right=0;pointerEvents=1;" parent="Sclc0kjUKKFrEiLYMH_a-24" vertex="1">
                    <mxGeometry x="155" width="78" height="40" as="geometry">
                        <mxRectangle width="78" height="40" as="alternateBounds"/>
                    </mxGeometry>
                </mxCell>
                <mxCell id="Sclc0kjUKKFrEiLYMH_a-28" value="Style" style="shape=partialRectangle;html=1;whiteSpace=wrap;connectable=0;strokeColor=inherit;overflow=hidden;fillColor=none;top=0;left=0;bottom=0;right=0;pointerEvents=1;" parent="Sclc0kjUKKFrEiLYMH_a-24" vertex="1">
                    <mxGeometry x="233" width="77" height="40" as="geometry">
                        <mxRectangle width="77" height="40" as="alternateBounds"/>
                    </mxGeometry>
                </mxCell>
                <mxCell id="Sclc0kjUKKFrEiLYMH_a-30" value="Material_used" style="shape=partialRectangle;html=1;whiteSpace=wrap;connectable=0;strokeColor=inherit;overflow=hidden;fillColor=none;top=0;left=0;bottom=0;right=0;pointerEvents=1;" parent="Sclc0kjUKKFrEiLYMH_a-24" vertex="1">
                    <mxGeometry x="310" width="77" height="40" as="geometry">
                        <mxRectangle width="77" height="40" as="alternateBounds"/>
                    </mxGeometry>
                </mxCell>
                <mxCell id="Sclc0kjUKKFrEiLYMH_a-29" value="SCULPTURE" style="text;html=1;align=center;verticalAlign=middle;resizable=0;points=[];autosize=1;strokeColor=none;fillColor=none;" parent="1" vertex="1">
                    <mxGeometry x="440" y="140" width="100" height="30" as="geometry"/>
                </mxCell>
                <mxCell id="Sclc0kjUKKFrEiLYMH_a-31" value="" style="shape=table;startSize=0;container=1;collapsible=0;childLayout=tableLayout;" parent="1" vertex="1">
                    <mxGeometry x="450" y="270" width="387" height="40" as="geometry"/>
                </mxCell>
                <mxCell id="Sclc0kjUKKFrEiLYMH_a-32" value="" style="shape=tableRow;horizontal=0;startSize=0;swimlaneHead=0;swimlaneBody=0;strokeColor=inherit;top=0;left=0;bottom=0;right=0;collapsible=0;dropTarget=0;fillColor=none;points=[[0,0.5],[1,0.5]];portConstraint=eastwest;" parent="Sclc0kjUKKFrEiLYMH_a-31" vertex="1">
                    <mxGeometry width="387" height="40" as="geometry"/>
                </mxCell>
                <mxCell id="Sclc0kjUKKFrEiLYMH_a-33" value="&lt;u&gt;ID_no&lt;/u&gt;" style="shape=partialRectangle;html=1;whiteSpace=wrap;connectable=0;strokeColor=inherit;overflow=hidden;fillColor=none;top=0;left=0;bottom=0;right=0;pointerEvents=1;" parent="Sclc0kjUKKFrEiLYMH_a-32" vertex="1">
                    <mxGeometry width="78" height="40" as="geometry">
                        <mxRectangle width="78" height="40" as="alternateBounds"/>
                    </mxGeometry>
                </mxCell>
                <mxCell id="Sclc0kjUKKFrEiLYMH_a-34" value="Height" style="shape=partialRectangle;html=1;whiteSpace=wrap;connectable=0;strokeColor=inherit;overflow=hidden;fillColor=none;top=0;left=0;bottom=0;right=0;pointerEvents=1;" parent="Sclc0kjUKKFrEiLYMH_a-32" vertex="1">
                    <mxGeometry x="78" width="77" height="40" as="geometry">
                        <mxRectangle width="77" height="40" as="alternateBounds"/>
                    </mxGeometry>
                </mxCell>
                <mxCell id="Sclc0kjUKKFrEiLYMH_a-35" value="Weight" style="shape=partialRectangle;html=1;whiteSpace=wrap;connectable=0;strokeColor=inherit;overflow=hidden;fillColor=none;top=0;left=0;bottom=0;right=0;pointerEvents=1;" parent="Sclc0kjUKKFrEiLYMH_a-32" vertex="1">
                    <mxGeometry x="155" width="78" height="40" as="geometry">
                        <mxRectangle width="78" height="40" as="alternateBounds"/>
                    </mxGeometry>
                </mxCell>
                <mxCell id="Sclc0kjUKKFrEiLYMH_a-36" value="Style" style="shape=partialRectangle;html=1;whiteSpace=wrap;connectable=0;strokeColor=inherit;overflow=hidden;fillColor=none;top=0;left=0;bottom=0;right=0;pointerEvents=1;" parent="Sclc0kjUKKFrEiLYMH_a-32" vertex="1">
                    <mxGeometry x="233" width="77" height="40" as="geometry">
                        <mxRectangle width="77" height="40" as="alternateBounds"/>
                    </mxGeometry>
                </mxCell>
                <mxCell id="Sclc0kjUKKFrEiLYMH_a-37" value="Materialused" style="shape=partialRectangle;html=1;whiteSpace=wrap;connectable=0;strokeColor=inherit;overflow=hidden;fillColor=none;top=0;left=0;bottom=0;right=0;pointerEvents=1;" parent="Sclc0kjUKKFrEiLYMH_a-32" vertex="1">
                    <mxGeometry x="310" width="77" height="40" as="geometry">
                        <mxRectangle width="77" height="40" as="alternateBounds"/>
                    </mxGeometry>
                </mxCell>
                <mxCell id="Sclc0kjUKKFrEiLYMH_a-38" value="STATUE" style="text;html=1;align=center;verticalAlign=middle;resizable=0;points=[];autosize=1;strokeColor=none;fillColor=none;" parent="1" vertex="1">
                    <mxGeometry x="440" y="240" width="70" height="30" as="geometry"/>
                </mxCell>
                <mxCell id="Sclc0kjUKKFrEiLYMH_a-39" value="" style="shape=table;startSize=0;container=1;collapsible=0;childLayout=tableLayout;" parent="1" vertex="1">
                    <mxGeometry x="60" y="270" width="233" height="40" as="geometry"/>
                </mxCell>
                <mxCell id="Sclc0kjUKKFrEiLYMH_a-40" value="" style="shape=tableRow;horizontal=0;startSize=0;swimlaneHead=0;swimlaneBody=0;strokeColor=inherit;top=0;left=0;bottom=0;right=0;collapsible=0;dropTarget=0;fillColor=none;points=[[0,0.5],[1,0.5]];portConstraint=eastwest;" parent="Sclc0kjUKKFrEiLYMH_a-39" vertex="1">
                    <mxGeometry width="233" height="40" as="geometry"/>
                </mxCell>
                <mxCell id="Sclc0kjUKKFrEiLYMH_a-41" value="&lt;u&gt;ID_no&lt;/u&gt;" style="shape=partialRectangle;html=1;whiteSpace=wrap;connectable=0;strokeColor=inherit;overflow=hidden;fillColor=none;top=0;left=0;bottom=0;right=0;pointerEvents=1;" parent="Sclc0kjUKKFrEiLYMH_a-40" vertex="1">
                    <mxGeometry width="78" height="40" as="geometry">
                        <mxRectangle width="78" height="40" as="alternateBounds"/>
                    </mxGeometry>
                </mxCell>
                <mxCell id="Sclc0kjUKKFrEiLYMH_a-42" value="Style" style="shape=partialRectangle;html=1;whiteSpace=wrap;connectable=0;strokeColor=inherit;overflow=hidden;fillColor=none;top=0;left=0;bottom=0;right=0;pointerEvents=1;" parent="Sclc0kjUKKFrEiLYMH_a-40" vertex="1">
                    <mxGeometry x="78" width="77" height="40" as="geometry">
                        <mxRectangle width="77" height="40" as="alternateBounds"/>
                    </mxGeometry>
                </mxCell>
                <mxCell id="Sclc0kjUKKFrEiLYMH_a-43" value="Typee" style="shape=partialRectangle;html=1;whiteSpace=wrap;connectable=0;strokeColor=inherit;overflow=hidden;fillColor=none;top=0;left=0;bottom=0;right=0;pointerEvents=1;" parent="Sclc0kjUKKFrEiLYMH_a-40" vertex="1">
                    <mxGeometry x="155" width="78" height="40" as="geometry">
                        <mxRectangle width="78" height="40" as="alternateBounds"/>
                    </mxGeometry>
                </mxCell>
                <mxCell id="Sclc0kjUKKFrEiLYMH_a-45" value="OTHER" style="text;html=1;align=center;verticalAlign=middle;resizable=0;points=[];autosize=1;strokeColor=none;fillColor=none;" parent="1" vertex="1">
                    <mxGeometry x="50" y="240" width="70" height="30" as="geometry"/>
                </mxCell>
                <mxCell id="Sclc0kjUKKFrEiLYMH_a-50" value="" style="endArrow=classic;html=1;rounded=0;entryX=0.013;entryY=0.998;entryDx=0;entryDy=0;entryPerimeter=0;exitX=0.123;exitY=1.05;exitDx=0;exitDy=0;exitPerimeter=0;" parent="1" source="Sclc0kjUKKFrEiLYMH_a-16" target="Sclc0kjUKKFrEiLYMH_a-3" edge="1">
                    <mxGeometry width="50" height="50" relative="1" as="geometry">
                        <mxPoint x="300" y="320" as="sourcePoint"/>
                        <mxPoint x="350" y="270" as="targetPoint"/>
                        <Array as="points">
                            <mxPoint x="98" y="230"/>
                            <mxPoint x="60" y="230"/>
                            <mxPoint x="20" y="230"/>
                            <mxPoint x="20" y="110"/>
                            <mxPoint x="60" y="110"/>
                            <mxPoint x="70" y="110"/>
                        </Array>
                    </mxGeometry>
                </mxCell>
                <mxCell id="Sclc0kjUKKFrEiLYMH_a-51" value="" style="endArrow=classic;html=1;rounded=0;entryX=0.023;entryY=1.05;entryDx=0;entryDy=0;entryPerimeter=0;exitX=0.099;exitY=1.041;exitDx=0;exitDy=0;exitPerimeter=0;" parent="1" source="Sclc0kjUKKFrEiLYMH_a-24" target="Sclc0kjUKKFrEiLYMH_a-3" edge="1">
                    <mxGeometry width="50" height="50" relative="1" as="geometry">
                        <mxPoint x="140" y="210" as="sourcePoint"/>
                        <mxPoint x="190" y="160" as="targetPoint"/>
                        <Array as="points">
                            <mxPoint x="488" y="230"/>
                            <mxPoint x="400" y="230"/>
                            <mxPoint x="400" y="190"/>
                            <mxPoint x="400" y="140"/>
                            <mxPoint x="240" y="140"/>
                            <mxPoint x="77" y="140"/>
                        </Array>
                    </mxGeometry>
                </mxCell>
                <mxCell id="Sclc0kjUKKFrEiLYMH_a-52" value="" style="endArrow=classic;html=1;rounded=0;entryX=0.034;entryY=1.084;entryDx=0;entryDy=0;entryPerimeter=0;exitX=0.166;exitY=1.024;exitDx=0;exitDy=0;exitPerimeter=0;" parent="1" source="Sclc0kjUKKFrEiLYMH_a-40" edge="1">
                    <mxGeometry width="50" height="50" relative="1" as="geometry">
                        <mxPoint x="40" y="336.64" as="sourcePoint"/>
                        <mxPoint x="84.81999999999994" y="80.00000000000001" as="targetPoint"/>
                        <Array as="points">
                            <mxPoint x="99" y="330"/>
                            <mxPoint x="40" y="330"/>
                            <mxPoint x="40" y="116.64"/>
                            <mxPoint x="85" y="117"/>
                        </Array>
                    </mxGeometry>
                </mxCell>
                <mxCell id="Sclc0kjUKKFrEiLYMH_a-53" value="" style="endArrow=classic;html=1;rounded=0;entryX=0.043;entryY=1.084;entryDx=0;entryDy=0;entryPerimeter=0;exitX=0.104;exitY=1.041;exitDx=0;exitDy=0;exitPerimeter=0;" parent="1" source="Sclc0kjUKKFrEiLYMH_a-32" target="Sclc0kjUKKFrEiLYMH_a-3" edge="1">
                    <mxGeometry width="50" height="50" relative="1" as="geometry">
                        <mxPoint x="390" y="340" as="sourcePoint"/>
                        <mxPoint x="190" y="160" as="targetPoint"/>
                        <Array as="points">
                            <mxPoint x="490" y="340"/>
                            <mxPoint x="390" y="340"/>
                            <mxPoint x="390" y="110"/>
                            <mxPoint x="240" y="110"/>
                            <mxPoint x="91" y="110"/>
                        </Array>
                    </mxGeometry>
                </mxCell>
                <mxCell id="Sclc0kjUKKFrEiLYMH_a-54" value="" style="shape=table;startSize=0;container=1;collapsible=0;childLayout=tableLayout;" parent="1" vertex="1">
                    <mxGeometry x="60" y="-110" width="530" height="40" as="geometry"/>
                </mxCell>
                <mxCell id="Sclc0kjUKKFrEiLYMH_a-55" value="" style="shape=tableRow;horizontal=0;startSize=0;swimlaneHead=0;swimlaneBody=0;strokeColor=inherit;top=0;left=0;bottom=0;right=0;collapsible=0;dropTarget=0;fillColor=none;points=[[0,0.5],[1,0.5]];portConstraint=eastwest;" parent="Sclc0kjUKKFrEiLYMH_a-54" vertex="1">
                    <mxGeometry width="530" height="40" as="geometry"/>
                </mxCell>
                <mxCell id="Sclc0kjUKKFrEiLYMH_a-56" value="&lt;u&gt;Namee&lt;/u&gt;" style="shape=partialRectangle;html=1;whiteSpace=wrap;connectable=0;strokeColor=inherit;overflow=hidden;fillColor=none;top=0;left=0;bottom=0;right=0;pointerEvents=1;" parent="Sclc0kjUKKFrEiLYMH_a-55" vertex="1">
                    <mxGeometry width="76" height="40" as="geometry">
                        <mxRectangle width="76" height="40" as="alternateBounds"/>
                    </mxGeometry>
                </mxCell>
                <mxCell id="Sclc0kjUKKFrEiLYMH_a-57" value="Epoch" style="shape=partialRectangle;html=1;whiteSpace=wrap;connectable=0;strokeColor=inherit;overflow=hidden;fillColor=none;top=0;left=0;bottom=0;right=0;pointerEvents=1;" parent="Sclc0kjUKKFrEiLYMH_a-55" vertex="1">
                    <mxGeometry x="76" width="75" height="40" as="geometry">
                        <mxRectangle width="75" height="40" as="alternateBounds"/>
                    </mxGeometry>
                </mxCell>
                <mxCell id="Sclc0kjUKKFrEiLYMH_a-58" value="Country" style="shape=partialRectangle;html=1;whiteSpace=wrap;connectable=0;strokeColor=inherit;overflow=hidden;fillColor=none;top=0;left=0;bottom=0;right=0;pointerEvents=1;" parent="Sclc0kjUKKFrEiLYMH_a-55" vertex="1">
                    <mxGeometry x="151" width="76" height="40" as="geometry">
                        <mxRectangle width="76" height="40" as="alternateBounds"/>
                    </mxGeometry>
                </mxCell>
                <mxCell id="Sclc0kjUKKFrEiLYMH_a-59" value="Main_Style" style="shape=partialRectangle;html=1;whiteSpace=wrap;connectable=0;strokeColor=inherit;overflow=hidden;fillColor=none;top=0;left=0;bottom=0;right=0;pointerEvents=1;" parent="Sclc0kjUKKFrEiLYMH_a-55" vertex="1">
                    <mxGeometry x="227" width="76" height="40" as="geometry">
                        <mxRectangle width="76" height="40" as="alternateBounds"/>
                    </mxGeometry>
                </mxCell>
                <mxCell id="Sclc0kjUKKFrEiLYMH_a-60" value="Date_born" style="shape=partialRectangle;html=1;whiteSpace=wrap;connectable=0;strokeColor=inherit;overflow=hidden;fillColor=none;top=0;left=0;bottom=0;right=0;pointerEvents=1;" parent="Sclc0kjUKKFrEiLYMH_a-55" vertex="1">
                    <mxGeometry x="303" width="76" height="40" as="geometry">
                        <mxRectangle width="76" height="40" as="alternateBounds"/>
                    </mxGeometry>
                </mxCell>
                <mxCell id="Sclc0kjUKKFrEiLYMH_a-61" value="Date_died" style="shape=partialRectangle;html=1;whiteSpace=wrap;connectable=0;strokeColor=inherit;overflow=hidden;fillColor=none;top=0;left=0;bottom=0;right=0;pointerEvents=1;" parent="Sclc0kjUKKFrEiLYMH_a-55" vertex="1">
                    <mxGeometry x="379" width="75" height="40" as="geometry">
                        <mxRectangle width="75" height="40" as="alternateBounds"/>
                    </mxGeometry>
                </mxCell>
                <mxCell id="Sclc0kjUKKFrEiLYMH_a-62" value="Descriptionn" style="shape=partialRectangle;html=1;whiteSpace=wrap;connectable=0;strokeColor=inherit;overflow=hidden;fillColor=none;top=0;left=0;bottom=0;right=0;pointerEvents=1;" parent="Sclc0kjUKKFrEiLYMH_a-55" vertex="1">
                    <mxGeometry x="454" width="76" height="40" as="geometry">
                        <mxRectangle width="76" height="40" as="alternateBounds"/>
                    </mxGeometry>
                </mxCell>
                <mxCell id="Sclc0kjUKKFrEiLYMH_a-63" value="ARTIST" style="text;html=1;align=center;verticalAlign=middle;resizable=0;points=[];autosize=1;strokeColor=none;fillColor=none;" parent="1" vertex="1">
                    <mxGeometry x="50" y="-140" width="70" height="30" as="geometry"/>
                </mxCell>
                <mxCell id="Sclc0kjUKKFrEiLYMH_a-64" value="" style="endArrow=classic;html=1;rounded=0;exitX=0.185;exitY=-0.125;exitDx=0;exitDy=0;exitPerimeter=0;entryX=0.068;entryY=1.042;entryDx=0;entryDy=0;entryPerimeter=0;" parent="1" source="Sclc0kjUKKFrEiLYMH_a-3" target="Sclc0kjUKKFrEiLYMH_a-55" edge="1">
                    <mxGeometry width="50" height="50" relative="1" as="geometry">
                        <mxPoint x="390" y="90" as="sourcePoint"/>
                        <mxPoint x="340" y="140" as="targetPoint"/>
                        <Array as="points">
                            <mxPoint x="195" y="-10"/>
                            <mxPoint x="150" y="-10"/>
                            <mxPoint x="96" y="-10"/>
                        </Array>
                    </mxGeometry>
                </mxCell>
                <mxCell id="Sclc0kjUKKFrEiLYMH_a-65" value="" style="shape=table;startSize=0;container=1;collapsible=0;childLayout=tableLayout;" parent="1" vertex="1">
                    <mxGeometry x="60" y="-260" width="260" height="40" as="geometry"/>
                </mxCell>
                <mxCell id="Sclc0kjUKKFrEiLYMH_a-66" value="" style="shape=tableRow;horizontal=0;startSize=0;swimlaneHead=0;swimlaneBody=0;strokeColor=inherit;top=0;left=0;bottom=0;right=0;collapsible=0;dropTarget=0;fillColor=none;points=[[0,0.5],[1,0.5]];portConstraint=eastwest;" parent="Sclc0kjUKKFrEiLYMH_a-65" vertex="1">
                    <mxGeometry width="260" height="40" as="geometry"/>
                </mxCell>
                <mxCell id="Sclc0kjUKKFrEiLYMH_a-67" value="&lt;u&gt;Namee&lt;/u&gt;" style="shape=partialRectangle;html=1;whiteSpace=wrap;connectable=0;strokeColor=inherit;overflow=hidden;fillColor=none;top=0;left=0;bottom=0;right=0;pointerEvents=1;" parent="Sclc0kjUKKFrEiLYMH_a-66" vertex="1">
                    <mxGeometry width="87" height="40" as="geometry">
                        <mxRectangle width="87" height="40" as="alternateBounds"/>
                    </mxGeometry>
                </mxCell>
                <mxCell id="Sclc0kjUKKFrEiLYMH_a-68" value="End_date" style="shape=partialRectangle;html=1;whiteSpace=wrap;connectable=0;strokeColor=inherit;overflow=hidden;fillColor=none;top=0;left=0;bottom=0;right=0;pointerEvents=1;" parent="Sclc0kjUKKFrEiLYMH_a-66" vertex="1">
                    <mxGeometry x="87" width="86" height="40" as="geometry">
                        <mxRectangle width="86" height="40" as="alternateBounds"/>
                    </mxGeometry>
                </mxCell>
                <mxCell id="Sclc0kjUKKFrEiLYMH_a-69" value="Start_date" style="shape=partialRectangle;html=1;whiteSpace=wrap;connectable=0;strokeColor=inherit;overflow=hidden;fillColor=none;top=0;left=0;bottom=0;right=0;pointerEvents=1;" parent="Sclc0kjUKKFrEiLYMH_a-66" vertex="1">
                    <mxGeometry x="173" width="87" height="40" as="geometry">
                        <mxRectangle width="87" height="40" as="alternateBounds"/>
                    </mxGeometry>
                </mxCell>
                <mxCell id="Sclc0kjUKKFrEiLYMH_a-70" value="" style="endArrow=classic;html=1;rounded=0;entryX=0.173;entryY=0.979;entryDx=0;entryDy=0;entryPerimeter=0;exitX=0.944;exitY=0;exitDx=0;exitDy=0;exitPerimeter=0;" parent="1" source="Sclc0kjUKKFrEiLYMH_a-3" target="Sclc0kjUKKFrEiLYMH_a-66" edge="1">
                    <mxGeometry width="50" height="50" relative="1" as="geometry">
                        <mxPoint x="340" y="-110" as="sourcePoint"/>
                        <mxPoint x="390" y="-160" as="targetPoint"/>
                        <Array as="points">
                            <mxPoint x="749" y="-160"/>
                            <mxPoint x="105" y="-160"/>
                        </Array>
                    </mxGeometry>
                </mxCell>
                <mxCell id="Sclc0kjUKKFrEiLYMH_a-71" value="EXHIBITION" style="text;html=1;align=center;verticalAlign=middle;resizable=0;points=[];autosize=1;strokeColor=none;fillColor=none;" parent="1" vertex="1">
                    <mxGeometry x="50" y="-290" width="90" height="30" as="geometry"/>
                </mxCell>
                <mxCell id="Sclc0kjUKKFrEiLYMH_a-72" value="" style="shape=table;startSize=0;container=1;collapsible=0;childLayout=tableLayout;" parent="1" vertex="1">
                    <mxGeometry x="60" y="400" width="430" height="40" as="geometry"/>
                </mxCell>
                <mxCell id="Sclc0kjUKKFrEiLYMH_a-73" value="" style="shape=tableRow;horizontal=0;startSize=0;swimlaneHead=0;swimlaneBody=0;strokeColor=inherit;top=0;left=0;bottom=0;right=0;collapsible=0;dropTarget=0;fillColor=none;points=[[0,0.5],[1,0.5]];portConstraint=eastwest;" parent="Sclc0kjUKKFrEiLYMH_a-72" vertex="1">
                    <mxGeometry width="430" height="40" as="geometry"/>
                </mxCell>
                <mxCell id="Sclc0kjUKKFrEiLYMH_a-74" value="&lt;u&gt;ID_no&lt;/u&gt;" style="shape=partialRectangle;html=1;whiteSpace=wrap;connectable=0;strokeColor=inherit;overflow=hidden;fillColor=none;top=0;left=0;bottom=0;right=0;pointerEvents=1;" parent="Sclc0kjUKKFrEiLYMH_a-73" vertex="1">
                    <mxGeometry width="108" height="40" as="geometry">
                        <mxRectangle width="108" height="40" as="alternateBounds"/>
                    </mxGeometry>
                </mxCell>
                <mxCell id="Sclc0kjUKKFrEiLYMH_a-75" value="Statuss" style="shape=partialRectangle;html=1;whiteSpace=wrap;connectable=0;strokeColor=inherit;overflow=hidden;fillColor=none;top=0;left=0;bottom=0;right=0;pointerEvents=1;" parent="Sclc0kjUKKFrEiLYMH_a-73" vertex="1">
                    <mxGeometry x="108" width="107" height="40" as="geometry">
                        <mxRectangle width="107" height="40" as="alternateBounds"/>
                    </mxGeometry>
                </mxCell>
                <mxCell id="Sclc0kjUKKFrEiLYMH_a-76" value="Cost" style="shape=partialRectangle;html=1;whiteSpace=wrap;connectable=0;strokeColor=inherit;overflow=hidden;fillColor=none;top=0;left=0;bottom=0;right=0;pointerEvents=1;" parent="Sclc0kjUKKFrEiLYMH_a-73" vertex="1">
                    <mxGeometry x="215" width="108" height="40" as="geometry">
                        <mxRectangle width="108" height="40" as="alternateBounds"/>
                    </mxGeometry>
                </mxCell>
                <mxCell id="Sclc0kjUKKFrEiLYMH_a-77" value="Date_acquired" style="shape=partialRectangle;html=1;whiteSpace=wrap;connectable=0;strokeColor=inherit;overflow=hidden;fillColor=none;top=0;left=0;bottom=0;right=0;pointerEvents=1;" parent="Sclc0kjUKKFrEiLYMH_a-73" vertex="1">
                    <mxGeometry x="323" width="107" height="40" as="geometry">
                        <mxRectangle width="107" height="40" as="alternateBounds"/>
                    </mxGeometry>
                </mxCell>
                <mxCell id="Sclc0kjUKKFrEiLYMH_a-78" value="PERMANENT_COLLECTION" style="text;html=1;align=center;verticalAlign=middle;resizable=0;points=[];autosize=1;strokeColor=none;fillColor=none;" parent="1" vertex="1">
                    <mxGeometry x="50" y="370" width="180" height="30" as="geometry"/>
                </mxCell>
                <mxCell id="Sclc0kjUKKFrEiLYMH_a-79" value="" style="endArrow=classic;html=1;rounded=0;entryX=0.055;entryY=1;entryDx=0;entryDy=0;entryPerimeter=0;exitX=0.116;exitY=1.042;exitDx=0;exitDy=0;exitPerimeter=0;" parent="1" source="Sclc0kjUKKFrEiLYMH_a-73" target="Sclc0kjUKKFrEiLYMH_a-3" edge="1">
                    <mxGeometry width="50" height="50" relative="1" as="geometry">
                        <mxPoint x="380" y="330" as="sourcePoint"/>
                        <mxPoint x="390" y="260" as="targetPoint"/>
                        <Array as="points">
                            <mxPoint x="110" y="490"/>
                            <mxPoint x="330" y="490"/>
                            <mxPoint x="560" y="490"/>
                            <mxPoint x="560" y="390"/>
                            <mxPoint x="380" y="390"/>
                            <mxPoint x="380" y="220"/>
                            <mxPoint x="380" y="120"/>
                            <mxPoint x="100" y="120"/>
                        </Array>
                    </mxGeometry>
                </mxCell>
                <mxCell id="Sclc0kjUKKFrEiLYMH_a-80" value="" style="shape=table;startSize=0;container=1;collapsible=0;childLayout=tableLayout;" parent="1" vertex="1">
                    <mxGeometry x="420" y="-260" width="370" height="40" as="geometry"/>
                </mxCell>
                <mxCell id="Sclc0kjUKKFrEiLYMH_a-81" value="" style="shape=tableRow;horizontal=0;startSize=0;swimlaneHead=0;swimlaneBody=0;strokeColor=inherit;top=0;left=0;bottom=0;right=0;collapsible=0;dropTarget=0;fillColor=none;points=[[0,0.5],[1,0.5]];portConstraint=eastwest;" parent="Sclc0kjUKKFrEiLYMH_a-80" vertex="1">
                    <mxGeometry width="370" height="40" as="geometry"/>
                </mxCell>
                <mxCell id="Sclc0kjUKKFrEiLYMH_a-82" value="ID_no" style="shape=partialRectangle;html=1;whiteSpace=wrap;connectable=0;strokeColor=inherit;overflow=hidden;fillColor=none;top=0;left=0;bottom=0;right=0;pointerEvents=1;" parent="Sclc0kjUKKFrEiLYMH_a-81" vertex="1">
                    <mxGeometry width="93" height="40" as="geometry">
                        <mxRectangle width="93" height="40" as="alternateBounds"/>
                    </mxGeometry>
                </mxCell>
                <mxCell id="Sclc0kjUKKFrEiLYMH_a-83" value="Collection_Name" style="shape=partialRectangle;html=1;whiteSpace=wrap;connectable=0;strokeColor=inherit;overflow=hidden;fillColor=none;top=0;left=0;bottom=0;right=0;pointerEvents=1;" parent="Sclc0kjUKKFrEiLYMH_a-81" vertex="1">
                    <mxGeometry x="93" width="92" height="40" as="geometry">
                        <mxRectangle width="92" height="40" as="alternateBounds"/>
                    </mxGeometry>
                </mxCell>
                <mxCell id="Sclc0kjUKKFrEiLYMH_a-84" value="Date_borrowed" style="shape=partialRectangle;html=1;whiteSpace=wrap;connectable=0;strokeColor=inherit;overflow=hidden;fillColor=none;top=0;left=0;bottom=0;right=0;pointerEvents=1;" parent="Sclc0kjUKKFrEiLYMH_a-81" vertex="1">
                    <mxGeometry x="185" width="93" height="40" as="geometry">
                        <mxRectangle width="93" height="40" as="alternateBounds"/>
                    </mxGeometry>
                </mxCell>
                <mxCell id="Sclc0kjUKKFrEiLYMH_a-85" value="Date_returned" style="shape=partialRectangle;html=1;whiteSpace=wrap;connectable=0;strokeColor=inherit;overflow=hidden;fillColor=none;top=0;left=0;bottom=0;right=0;pointerEvents=1;" parent="Sclc0kjUKKFrEiLYMH_a-81" vertex="1">
                    <mxGeometry x="278" width="92" height="40" as="geometry">
                        <mxRectangle width="92" height="40" as="alternateBounds"/>
                    </mxGeometry>
                </mxCell>
                <mxCell id="Sclc0kjUKKFrEiLYMH_a-86" value="BORROWED" style="text;html=1;align=center;verticalAlign=middle;resizable=0;points=[];autosize=1;strokeColor=none;fillColor=none;" parent="1" vertex="1">
                    <mxGeometry x="410" y="-290" width="100" height="30" as="geometry"/>
                </mxCell>
                <mxCell id="Sclc0kjUKKFrEiLYMH_a-87" value="" style="shape=table;startSize=0;container=1;collapsible=0;childLayout=tableLayout;" parent="1" vertex="1">
                    <mxGeometry x="60" y="-460" width="440" height="40" as="geometry"/>
                </mxCell>
                <mxCell id="Sclc0kjUKKFrEiLYMH_a-88" value="" style="shape=tableRow;horizontal=0;startSize=0;swimlaneHead=0;swimlaneBody=0;strokeColor=inherit;top=0;left=0;bottom=0;right=0;collapsible=0;dropTarget=0;fillColor=none;points=[[0,0.5],[1,0.5]];portConstraint=eastwest;" parent="Sclc0kjUKKFrEiLYMH_a-87" vertex="1">
                    <mxGeometry width="440" height="40" as="geometry"/>
                </mxCell>
                <mxCell id="Sclc0kjUKKFrEiLYMH_a-89" value="&lt;u&gt;C_Name&lt;/u&gt;" style="shape=partialRectangle;html=1;whiteSpace=wrap;connectable=0;strokeColor=inherit;overflow=hidden;fillColor=none;top=0;left=0;bottom=0;right=0;pointerEvents=1;" parent="Sclc0kjUKKFrEiLYMH_a-88" vertex="1">
                    <mxGeometry width="110" height="40" as="geometry">
                        <mxRectangle width="110" height="40" as="alternateBounds"/>
                    </mxGeometry>
                </mxCell>
                <mxCell id="Sclc0kjUKKFrEiLYMH_a-90" value="Address" style="shape=partialRectangle;html=1;whiteSpace=wrap;connectable=0;strokeColor=inherit;overflow=hidden;fillColor=none;top=0;left=0;bottom=0;right=0;pointerEvents=1;" parent="Sclc0kjUKKFrEiLYMH_a-88" vertex="1">
                    <mxGeometry x="110" width="110" height="40" as="geometry">
                        <mxRectangle width="110" height="40" as="alternateBounds"/>
                    </mxGeometry>
                </mxCell>
                <mxCell id="Sclc0kjUKKFrEiLYMH_a-91" value="Phone" style="shape=partialRectangle;html=1;whiteSpace=wrap;connectable=0;strokeColor=inherit;overflow=hidden;fillColor=none;top=0;left=0;bottom=0;right=0;pointerEvents=1;" parent="Sclc0kjUKKFrEiLYMH_a-88" vertex="1">
                    <mxGeometry x="220" width="110" height="40" as="geometry">
                        <mxRectangle width="110" height="40" as="alternateBounds"/>
                    </mxGeometry>
                </mxCell>
                <mxCell id="Sclc0kjUKKFrEiLYMH_a-92" value="Typee" style="shape=partialRectangle;html=1;whiteSpace=wrap;connectable=0;strokeColor=inherit;overflow=hidden;fillColor=none;top=0;left=0;bottom=0;right=0;pointerEvents=1;" parent="Sclc0kjUKKFrEiLYMH_a-88" vertex="1">
                    <mxGeometry x="330" width="110" height="40" as="geometry">
                        <mxRectangle width="110" height="40" as="alternateBounds"/>
                    </mxGeometry>
                </mxCell>
                <mxCell id="Sclc0kjUKKFrEiLYMH_a-93" value="" style="endArrow=classic;html=1;rounded=0;entryX=0.121;entryY=1.083;entryDx=0;entryDy=0;entryPerimeter=0;exitX=0.381;exitY=1.021;exitDx=0;exitDy=0;exitPerimeter=0;" parent="1" source="Sclc0kjUKKFrEiLYMH_a-81" target="Sclc0kjUKKFrEiLYMH_a-88" edge="1">
                    <mxGeometry width="50" height="50" relative="1" as="geometry">
                        <mxPoint x="340" y="-270" as="sourcePoint"/>
                        <mxPoint x="390" y="-320" as="targetPoint"/>
                        <Array as="points">
                            <mxPoint x="561" y="-190"/>
                            <mxPoint x="360" y="-190"/>
                            <mxPoint x="360" y="-350"/>
                            <mxPoint x="113" y="-350"/>
                        </Array>
                    </mxGeometry>
                </mxCell>
                <mxCell id="Sclc0kjUKKFrEiLYMH_a-94" value="" style="endArrow=classic;html=1;rounded=0;entryX=0.078;entryY=1.146;entryDx=0;entryDy=0;entryPerimeter=0;exitX=0.122;exitY=1.083;exitDx=0;exitDy=0;exitPerimeter=0;" parent="1" source="Sclc0kjUKKFrEiLYMH_a-81" target="Sclc0kjUKKFrEiLYMH_a-3" edge="1">
                    <mxGeometry width="50" height="50" relative="1" as="geometry">
                        <mxPoint x="340" y="-20" as="sourcePoint"/>
                        <mxPoint x="390" y="-70" as="targetPoint"/>
                        <Array as="points">
                            <mxPoint x="465" y="-170"/>
                            <mxPoint x="820" y="-170"/>
                            <mxPoint x="820" y="130"/>
                            <mxPoint x="470" y="130"/>
                            <mxPoint x="117" y="130"/>
                        </Array>
                    </mxGeometry>
                </mxCell>
                <mxCell id="Sclc0kjUKKFrEiLYMH_a-95" value="COLLECTIONS" style="text;html=1;align=center;verticalAlign=middle;resizable=0;points=[];autosize=1;strokeColor=none;fillColor=none;" parent="1" vertex="1">
                    <mxGeometry x="50" y="-490" width="110" height="30" as="geometry"/>
                </mxCell>
            </root>
        </mxGraphModel>
    </diagram>
</mxfile>